<?xml version="1.0" encoding="utf-8"?>
<!-- Generator: Adobe Illustrator 21.0.0, SVG Export Plug-In . SVG Version: 6.00 Build 0)  -->
<svg version="1.1" id="Capa_1" xmlns="http://www.w3.org/2000/svg" xmlns:xlink="http://www.w3.org/1999/xlink" x="0px" y="0px"
	 viewBox="0 0 30 31.8" style="enable-background:new 0 0 30 31.8;" xml:space="preserve">
<style type="text/css">
	.st0{fill:#DD1C5D;}
</style>
<path class="st0" d="M10.3,24.5c-2,0-3.6,1.6-3.6,3.6s1.6,3.6,3.6,3.6c2,0,3.6-1.6,3.6-3.6S12.3,24.5,10.3,24.5z M10.3,29.6
	c-0.8,0-1.4-0.6-1.4-1.4c0-0.8,0.6-1.4,1.4-1.4c0.8,0,1.4,0.6,1.4,1.4C11.7,28.9,11.1,29.6,10.3,29.6z"/>
<path class="st0" d="M23.5,24.5c-2,0-3.6,1.6-3.6,3.6c0,2,1.6,3.6,3.6,3.6c2,0,3.6-1.6,3.6-3.6S25.5,24.5,23.5,24.5z M23.5,29.6
	c-0.8,0-1.4-0.6-1.4-1.4s0.6-1.4,1.4-1.4c0.8,0,1.4,0.6,1.4,1.4C24.9,28.9,24.3,29.6,23.5,29.6z"/>
<path class="st0" d="M26.9,17.5l3-9.3c0.1-0.3,0-0.7-0.2-1c-0.2-0.3-0.5-0.5-0.9-0.5H7.3L6.5,1.7C6.4,1.2,6,0.8,5.6,0.8L1.3,0
	C0.7-0.1,0.1,0.3,0,0.9c-0.1,0.6,0.3,1.2,0.9,1.3l3.5,0.6l3.2,19.7c0.1,0.5,0.6,0.9,1.1,0.9H26c0.6,0,1.1-0.5,1.1-1.1
	c0-0.6-0.5-1.1-1.1-1.1H9.6l-0.5-2.9h16.7C26.4,18.3,26.8,18,26.9,17.5z"/>
</svg>
