<?xml version="1.0" encoding="utf-8"?>
<!-- Generator: Adobe Illustrator 21.0.0, SVG Export Plug-In . SVG Version: 6.00 Build 0)  -->
<svg version="1.1" id="Layer_1" xmlns="http://www.w3.org/2000/svg" xmlns:xlink="http://www.w3.org/1999/xlink" x="0px" y="0px"
	 viewBox="0 0 512 512" style="enable-background:new 0 0 512 512;" xml:space="preserve">
<style type="text/css">
	.st0{fill:#4E598F;}
	.st1{fill:#364270;}
	.st2{fill:#FFFFFF;}
	.st3{fill:#EFEFEF;}
</style>
<circle class="st0" cx="256" cy="256" r="256"/>
<path class="st1" d="M511.6,241.7L391,121.1c-2,0.6-7-1.7-9.2-1.3c-51.7,8.6-101.7,0-151.7,13.8c-24.1,6.9-25.9,36.2-34.5,55.2
	c-12.1,34.5-10.3,72.4-25.9,105.2c-10.3,22.4-34.5,36.2-43.1,62.1c-2.9,10.8-2.7,24.4-6,34.7l121,120.9c4.7,0.3,9.5,0.4,14.3,0.4
	c141.4,0,256-114.6,256-256C512,251.2,511.9,246.4,511.6,241.7z"/>
<g>
	<path class="st2" d="M363,109.5H149c-21.8,0-39.5,17.7-39.5,39.5V363c0,21.8,17.7,39.5,39.5,39.5h105.6l0.2-104.7h-27.2
		c-3.5,0-6.4-2.9-6.4-6.4l-0.1-33.8c0-3.6,2.9-6.4,6.4-6.4h27.2v-32.6c0-37.9,23.1-58.5,56.9-58.5h27.7c3.5,0,6.4,2.9,6.4,6.4V195
		c0,3.5-2.9,6.4-6.4,6.4l-17,0c-18.4,0-21.9,8.7-21.9,21.5v28.2h40.4c3.8,0,6.8,3.4,6.4,7.2l-4,33.8c-0.4,3.2-3.1,5.7-6.4,5.7h-36.2
		l-0.2,104.7H363c21.8,0,39.5-17.7,39.5-39.5V149C402.5,127.1,384.9,109.5,363,109.5L363,109.5z"/>
	<polygon class="st2" points="254.5,402.5 254.7,297.8 254.3,297.8 254.3,402.5 	"/>
</g>
<path class="st3" d="M363,109.5H254.3v141.7h0.3v-32.6c0-37.9,23.1-58.5,56.9-58.5h27.7c3.5,0,6.4,2.9,6.4,6.4V195
	c0,3.5-2.9,6.4-6.4,6.4l-17,0c-18.4,0-21.9,8.7-21.9,21.5v28.2h40.4c3.8,0,6.8,3.4,6.4,7.2l-4,33.8c-0.4,3.2-3.1,5.7-6.4,5.7h-36.2
	l-0.2,104.7H363c21.8,0,39.5-17.7,39.5-39.5V149C402.5,127.1,384.9,109.5,363,109.5z"/>
</svg>
