<?xml version="1.0" encoding="utf-8"?>
<!-- Generator: Adobe Illustrator 21.0.0, SVG Export Plug-In . SVG Version: 6.00 Build 0)  -->
<svg version="1.1" id="Layer_1" xmlns="http://www.w3.org/2000/svg" xmlns:xlink="http://www.w3.org/1999/xlink" x="0px" y="0px"
	 viewBox="0 0 512 512" style="enable-background:new 0 0 512 512;" xml:space="preserve">
<style type="text/css">
	.st0{fill:#CF4C3C;}
	.st1{fill:#AD3228;}
	.st2{fill:#FFFFFF;}
	.st3{fill:#D1D1D1;}
</style>
<circle class="st0" cx="256" cy="256" r="256"/>
<path class="st1" d="M373,215.5l-36.5,43.9l-68.8-71.5h-95l-38.5,41.6v89.9l184.6,184.7c83.6-21.1,150.8-83.3,178.9-163.9L373,215.5
	z"/>
<path class="st2" d="M212.3,275.3h45.8c-8,22.7-29.8,39-55.3,38.8c-30.9-0.2-56.5-25-57.7-55.9c-1.3-33.1,25.3-60.5,58.1-60.5
	c15,0,28.7,5.7,39.1,15.1c2.4,2.2,6.2,2.2,8.6,0l16.8-15.8c2.6-2.5,2.6-6.7,0-9.1c-16.4-15.5-38.4-25.2-62.6-25.7
	c-51.7-1-95.3,41.4-95.6,93.1c-0.4,52.1,41.8,94.4,93.8,94.4c50,0,90.9-39.2,93.6-88.5c0.1-0.6,0.1-21.5,0.1-21.5h-84.7
	c-3.5,0-6.3,2.8-6.3,6.3v23C206,272.5,208.8,275.3,212.3,275.3L212.3,275.3z"/>
<path class="st3" d="M374.5,241.8v-22.5c0-3-2.5-5.5-5.5-5.5h-18.9c-3,0-5.5,2.5-5.5,5.5v22.5h-22.5c-3,0-5.5,2.5-5.5,5.5v18.9
	c0,3,2.5,5.5,5.5,5.5h22.5v22.5c0,3,2.5,5.5,5.5,5.5H369c3,0,5.5-2.5,5.5-5.5v-22.5H397c3,0,5.5-2.5,5.5-5.5v-18.9
	c0-3-2.5-5.5-5.5-5.5H374.5z"/>
</svg>
