<?xml version="1.0" encoding="utf-8"?>
<!-- Generator: Adobe Illustrator 21.0.0, SVG Export Plug-In . SVG Version: 6.00 Build 0)  -->
<svg version="1.1" id="圖層_2" xmlns="http://www.w3.org/2000/svg" xmlns:xlink="http://www.w3.org/1999/xlink" x="0px" y="0px"
	 viewBox="0 0 30 31.8" style="enable-background:new 0 0 30 31.8;" xml:space="preserve">
<style type="text/css">
	.st0{fill:#DD1C5D;}
</style>
<path class="st0" d="M15.1,29.3c-0.3,0-0.6-0.1-0.8-0.3L3.5,18.3c-0.4-0.5-0.8-1-1.1-1.5c-0.8-1.3-1.2-2.8-1.2-4.3
	c0-4.7,3.8-8.5,8.5-8.5c1.5,0,3,0.4,4.3,1.2c0.4,0.2,0.7,0.4,1,0.7c0.3-0.3,0.6-0.5,1-0.7c1.3-0.8,2.8-1.2,4.3-1.2
	c4.7,0,8.5,3.8,8.5,8.5c0,1.5-0.4,3-1.2,4.3c-0.3,0.5-0.7,1-1.1,1.5L15.9,29C15.6,29.2,15.4,29.3,15.1,29.3z"/>
</svg>
