<?xml version="1.0" encoding="utf-8"?>
<!-- Generator: Adobe Illustrator 21.0.0, SVG Export Plug-In . SVG Version: 6.00 Build 0)  -->
<svg version="1.1" id="圖層_2" xmlns="http://www.w3.org/2000/svg" xmlns:xlink="http://www.w3.org/1999/xlink" x="0px" y="0px"
	 viewBox="0 0 30 31.8" style="enable-background:new 0 0 30 31.8;" xml:space="preserve">
<style type="text/css">
	.st0{fill:none;stroke:#DD1C5D;stroke-width:2.2;stroke-linejoin:round;stroke-miterlimit:10;}
</style>
<path class="st0" d="M20.4,5c-1.4,0-2.7,0.4-3.8,1c-0.6,0.3-1.1,0.7-1.6,1.2c-0.5-0.5-1-0.9-1.6-1.2c-1.1-0.7-2.4-1-3.8-1
	c-4.1,0-7.4,3.3-7.4,7.4c0,1.4,0.4,2.7,1,3.8c0.3,0.5,0.6,0.9,1,1.3l0.4,0.4l10.4,10.4l10.4-10.4l0.4-0.4c0.4-0.4,0.7-0.8,1-1.3
	c0.7-1.1,1-2.4,1-3.8C27.8,8.3,24.5,5,20.4,5z"/>
</svg>
