<?xml version="1.0" encoding="utf-8"?>
<!-- Generator: Adobe Illustrator 21.0.0, SVG Export Plug-In . SVG Version: 6.00 Build 0)  -->
<svg version="1.1" xmlns="http://www.w3.org/2000/svg" xmlns:xlink="http://www.w3.org/1999/xlink" x="0px" y="0px"
	 viewBox="0 0 512 512" style="enable-background:new 0 0 512 512;" xml:space="preserve">
<style type="text/css">
	.st0{fill:#3ACE01;}
	.st1{fill:#33AF00;}
	.st2{fill:#33AD00;}
	.st3{fill:#FFFFFF;}
</style>
<g id="圖層_2">
	<circle class="st0" cx="256" cy="256" r="256"/>
	<path class="st1" d="M318.9,504.2C318.9,504.2,318.9,504.2,318.9,504.2C318.9,504.2,318.9,504.2,318.9,504.2L318.9,504.2z"/>
	<path class="st0" d="M318.9,504.2c0.8-0.2,1.7-0.4,2.5-0.6C320.6,503.8,319.8,504,318.9,504.2z"/>
	<path class="st2" d="M504.8,316.5L366.7,179L134.2,319.5l184.6,184.7c0,0,0.1,0,0.1,0c0.8-0.2,1.7-0.4,2.5-0.6
		C411.8,479.7,482.7,407.7,504.8,316.5z"/>
</g>
<g id="圖層_1">
	<g>
		<path class="st3" d="M249,131.6c80.9,0,146.5,52.5,146.5,117.3c0,22.6-8,43.8-21.9,61.7c-0.7,1-1.6,2.1-2.7,3.4l-0.1,0.1
			c-4.7,5.7-10.1,11-15.9,15.9c-40.5,37.5-107.2,82-116,75.2c-7.7-6,12.6-35.2-10.8-40.1c-1.6-0.2-3.3-0.4-4.9-0.6l0,0v0
			c-68.6-9.8-120.8-57.8-120.8-115.5C102.5,184.1,168.1,131.6,249,131.6L249,131.6z"/>
		<path class="st0" d="M164,286.3h29.6c4.2,0,7.6-3.4,7.6-7.6v-0.6c0-4.2-3.4-7.6-7.6-7.6h-21.3V222c0-4.2-3.4-7.6-7.6-7.6H164
			c-4.2,0-7.6,3.4-7.6,7.6v56.7C156.3,282.9,159.8,286.3,164,286.3z M347.1,250.8v-0.6c0-4.2-3.4-7.6-7.6-7.6h-21.3v-12.1h21.3
			c4.2,0,7.6-3.4,7.6-7.6v-0.6c0-4.2-3.4-7.6-7.6-7.6h-29.6c-4.2,0-7.6,3.4-7.6,7.6v56.7c0,4.2,3.4,7.6,7.6,7.6h29.6
			c4.2,0,7.6-3.4,7.6-7.6v-0.6c0-4.2-3.4-7.6-7.6-7.6h-21.3v-12.1h21.3C343.7,258.5,347.1,255,347.1,250.8L347.1,250.8z
			 M290.3,284.1L290.3,284.1c1.4-1.4,2.2-3.4,2.2-5.4V222c0-4.2-3.4-7.6-7.6-7.6h-0.6c-4.2,0-7.6,3.4-7.6,7.6v33.3l-27.6-37
			c-1.3-2.3-3.8-3.9-6.6-3.9h-0.6c-4.2,0-7.6,3.4-7.6,7.6v56.7c0,4.2,3.4,7.6,7.6,7.6h0.6c4.2,0,7.6-3.4,7.6-7.6v-33.9l27.8,38
			c0.2,0.3,0.4,0.5,0.6,0.8l0,0c0.8,1,1.8,1.8,3,2.2c0.9,0.4,1.9,0.6,2.9,0.6h0.6c1.2,0,2.5-0.3,3.6-0.9
			C289.2,285.1,289.8,284.6,290.3,284.1L290.3,284.1z M215,286.3h0.6c4.2,0,7.6-3.4,7.6-7.6V222c0-4.2-3.4-7.6-7.6-7.6H215
			c-4.2,0-7.6,3.4-7.6,7.6v56.7C207.3,282.9,210.8,286.3,215,286.3L215,286.3z"/>
	</g>
</g>
</svg>
