<?xml version="1.0" encoding="utf-8"?>
<!-- Generator: Adobe Illustrator 16.0.0, SVG Export Plug-In . SVG Version: 6.00 Build 0)  -->
<!DOCTYPE svg PUBLIC "-//W3C//DTD SVG 1.1//EN" "http://www.w3.org/Graphics/SVG/1.1/DTD/svg11.dtd">
<svg version="1.1" xmlns="http://www.w3.org/2000/svg" xmlns:xlink="http://www.w3.org/1999/xlink" x="0px" y="0px"
	 width="231.773px" height="60px" viewBox="0 0 231.773 60" enable-background="new 0 0 231.773 60" xml:space="preserve">
<g id="圖層_2">
</g>
<g id="圖層_1">
	<g>
		<g>
			<path fill="#FFFFFF" d="M24.745,57.195c-1.866-1.87-2.8-4.188-2.798-6.955c-0.002-2.777,0.932-5.097,2.798-6.961
				c1.863-1.865,4.185-2.797,6.961-2.797s5.097,0.934,6.961,2.797c1.865,1.865,2.797,4.185,2.797,6.962
				c0,2.775-0.931,5.096-2.797,6.96C36.803,59.066,34.482,60,31.706,60S26.608,59.064,24.745,57.195z M31.719,56.356
				c1.727,0,3.133-0.584,4.216-1.756c1.085-1.173,1.627-2.625,1.627-4.36c0-1.734-0.542-3.188-1.627-4.359
				c-1.083-1.171-2.498-1.758-4.241-1.757c-1.729-0.001-3.133,0.586-4.218,1.757c-1.082,1.17-1.626,2.624-1.626,4.358
				s0.544,3.188,1.626,4.36C28.561,55.772,29.977,56.356,31.719,56.356z"/>
			<path fill="#FFFFFF" d="M19.345,48.271l-8.937-0.001v3.661h5.008c-0.246,1.009-0.719,1.899-1.43,2.668
				c-1.084,1.172-2.489,1.756-4.214,1.756c-1.745-0.001-3.158-0.585-4.243-1.756c-1.085-1.172-1.626-2.625-1.626-4.359
				c0-1.736,0.541-3.189,1.626-4.359c1.084-1.171,2.488-1.758,4.216-1.757c1.549-0.001,2.838,0.465,3.867,1.39l3.37-1.947
				c-0.089-0.096-0.171-0.195-0.263-0.289c-1.864-1.865-4.186-2.797-6.962-2.797s-5.097,0.932-6.96,2.797
				C0.932,45.144,0,47.464,0,50.241c0,2.767,0.933,5.085,2.798,6.955c1.864,1.869,4.184,2.803,6.96,2.805
				c2.776-0.001,5.098-0.934,6.964-2.798c1.863-1.864,2.794-4.185,2.796-6.961C19.518,49.556,19.46,48.899,19.345,48.271z"/>
		</g>
		<g>
			<path fill="#FFFFFF" d="M69.298,57.195c-1.866-1.871-2.798-4.188-2.798-6.955c0-2.777,0.933-5.096,2.798-6.962
				c1.865-1.864,4.185-2.797,6.96-2.797s5.097,0.933,6.962,2.797c1.864,1.865,2.797,4.185,2.797,6.962s-0.933,5.097-2.797,6.96
				c-1.865,1.866-4.186,2.798-6.96,2.8C73.483,60,71.163,59.063,69.298,57.195z M76.272,56.356c1.726,0,3.129-0.586,4.216-1.756
				c1.083-1.172,1.626-2.625,1.626-4.36c0-1.734-0.543-3.188-1.627-4.359c-1.086-1.171-2.498-1.757-4.241-1.757
				c-1.728,0-3.132,0.585-4.216,1.757c-1.085,1.172-1.627,2.625-1.627,4.359c0,1.735,0.542,3.188,1.627,4.359
				C73.114,55.77,74.528,56.355,76.272,56.356z"/>
			<path fill="#FFFFFF" d="M64.812,48.27h-8.937v3.662h5.006c-0.245,1.009-0.718,1.899-1.429,2.666
				c-1.084,1.173-2.489,1.758-4.216,1.757c-1.742,0-3.157-0.585-4.241-1.756c-1.087-1.172-1.628-2.624-1.628-4.36
				c0.002-1.734,0.541-3.188,1.628-4.359c1.083-1.171,2.489-1.757,4.214-1.757c1.55,0,2.837,0.465,3.867,1.391l3.373-1.946
				c-0.092-0.096-0.172-0.197-0.265-0.292c-1.864-1.864-4.186-2.796-6.96-2.796c-2.778,0-5.098,0.932-6.963,2.796
				c-1.864,1.866-2.798,4.186-2.797,6.963c-0.001,2.767,0.933,5.084,2.797,6.954c1.865,1.87,4.186,2.805,6.963,2.805
				c2.774,0,5.096-0.932,6.96-2.798c1.866-1.863,2.797-4.184,2.797-6.96C64.981,49.555,64.925,48.898,64.812,48.27z"/>
		</g>
		<path fill="#FFFFFF" d="M166.323,40.57v3.628l-6.477-0.001L159.849,60l-3.886,0V44.198h-6.478l-0.001-3.628H166.323z"/>
		<path fill="#FFFFFF" d="M173.58,40.57v11.269c0,1.47,0.431,2.548,1.294,3.239c0.862,0.691,1.943,1.035,3.238,1.035
			c1.294,0,2.375-0.343,3.238-1.035c0.865-0.691,1.295-1.77,1.295-3.238V40.57h3.886v12.306c0,1.986-0.801,3.669-2.396,5.052
			c-1.598,1.381-3.606,2.074-6.023,2.072c-2.42,0-4.426-0.691-6.023-2.071c-1.598-1.382-2.396-3.067-2.396-5.053V40.57H173.58z"/>
		<path fill="#FFFFFF" d="M191.071,60l-0.001-19.43h1.294l12.178,12.177V40.57h3.886V60h-1.427l-12.047-12.045L194.955,60
			L191.071,60z"/>
		<path fill="#FFFFFF" d="M231.604,48.326h-8.897v3.644l4.983,0.001c-0.241,1.004-0.715,1.891-1.42,2.656
			c-1.082,1.164-2.479,1.748-4.198,1.748c-1.735,0-3.144-0.583-4.222-1.749c-1.08-1.166-1.618-2.613-1.618-4.34
			c0-1.727,0.538-3.173,1.618-4.338c1.08-1.165,2.479-1.748,4.196-1.748c1.542,0,2.823,0.462,3.847,1.382l3.357-1.937
			c-0.09-0.097-0.168-0.196-0.261-0.288c-1.858-1.857-4.167-2.787-6.929-2.787c-2.765,0-5.075,0.93-6.932,2.785
			c-1.858,1.856-2.784,4.167-2.784,6.931c0,2.754,0.927,5.061,2.784,6.922c1.856,1.86,4.168,2.791,6.931,2.791
			s5.071-0.927,6.93-2.784c1.856-1.856,2.783-4.166,2.783-6.93C231.773,49.605,231.717,48.952,231.604,48.326z"/>
		<g>
			<path fill="#FFFFFF" d="M110.522,40.57l-0.003,3.627l-6.475,0V60h-3.886V44.197l-6.476,0V40.57H110.522z"/>
			<path fill="#FFFFFF" d="M140.395,40.557h3.872V60h-3.872V40.557z"/>
			<polygon fill="#FFFFFF" points="125.155,40.57 121.269,40.57 113.496,60 117.644,60 118.809,57.02 118.83,57.02 123.317,45.751 
				128.783,59.999 132.913,59.987 			"/>
		</g>
		<g>
			<path d="M52.153,26.619c-0.246,1.143-0.536,2.254-0.875,3.331H46.87c0.428-1.077,0.775-2.176,1.043-3.297
				c0.271-1.123,0.494-2.278,0.674-3.467h4.14C52.591,24.329,52.401,25.473,52.153,26.619z M57.369,21.2
				c-0.405,0.426-0.987,0.639-1.75,0.639h-5.382c-0.81,0-1.404-0.19-1.786-0.571c-0.448-0.403-0.671-1.031-0.671-1.885V3.063
				c0-0.672,0.18-1.211,0.539-1.617c0.381-0.448,0.93-0.673,1.646-0.673h5.689c0.761,0,1.346,0.236,1.749,0.708
				c0.382,0.45,0.572,1.056,0.572,1.818v16.252C57.976,20.247,57.774,20.796,57.369,21.2z M53.703,4.14
				c0-0.224-0.136-0.338-0.405-0.338h-0.841c-0.089,0-0.173,0.034-0.252,0.102c-0.078,0.067-0.122,0.146-0.122,0.236v2.658h1.62
				V4.14z M53.703,9.59h-1.62v3.23h1.62V9.59z M53.703,15.615h-1.62v2.86c0,0.112,0.044,0.201,0.122,0.27
				c0.079,0.066,0.163,0.1,0.252,0.1h0.841c0.27,0,0.405-0.123,0.405-0.37V15.615z M54.543,29.95
				c-0.336-1.077-0.599-2.188-0.79-3.331c-0.19-1.146-0.354-2.29-0.488-3.434h4.005c0.11,1.167,0.274,2.301,0.487,3.398
				c0.214,1.1,0.51,2.222,0.891,3.366H54.543z M76.046,25.307v1.277c0,0.518-0.038,0.976-0.119,1.381
				c-0.076,0.403-0.209,0.75-0.386,1.042c-0.247,0.315-0.562,0.55-0.943,0.706c-0.38,0.157-0.886,0.237-1.513,0.237h-4.239
				l-0.878-2.727h3.367c0.179,0,0.314-0.062,0.404-0.185c0.088-0.123,0.134-0.274,0.134-0.455v-1.277h-7.976v4.643H59.86v-4.643
				h-1.413v-2.693h1.413v-5.452c0-0.92,0.28-1.604,0.842-2.052c0.515-0.381,1.188-0.571,2.019-0.571h3.026v-1.314h-7.032v-2.589
				h2.961V9.018h-2.354v-2.59h2.354V4.879h-2.758V2.221h2.758V0.168h4.477v2.052h3.232V0.168h4.474v2.052h3.23v2.658h-3.23v1.549
				h2.392v2.59h-2.392v1.616h3.433v2.589h-7.034v1.314h3.03c0.381,0,0.733,0.061,1.06,0.185c0.326,0.123,0.61,0.286,0.859,0.487
				c0.56,0.517,0.84,1.2,0.84,2.052v5.352h1.481v2.693H76.046z M65.747,17.363h-1.345c-0.114,0-0.227,0.057-0.337,0.168
				c-0.112,0.114-0.168,0.225-0.168,0.337v0.876h1.85V17.363z M65.747,21.099h-1.85v1.515h1.85V21.099z M69.385,4.879h-3.232v1.549
				h3.232V4.879z M69.385,9.018h-3.232v1.616h3.232V9.018z M71.873,17.869c0-0.135-0.074-0.251-0.217-0.353
				c-0.148-0.101-0.285-0.152-0.422-0.152h-0.978v1.381h1.616V17.869z M71.873,21.099h-1.616v1.515h1.616V21.099z"/>
			<path d="M97.563,19.08c-0.358,0.965-0.835,1.952-1.43,2.96c-0.596,1.011-1.258,1.986-1.987,2.928
				c-0.727,0.943-1.495,1.834-2.304,2.677c-0.806,0.84-1.614,1.574-2.424,2.204h-6.258c0.719-0.562,1.498-1.207,2.338-1.936
				c0.843-0.729,1.622-1.452,2.338-2.17c-0.378-0.516-0.778-1.077-1.193-1.684c-0.414-0.605-0.776-1.166-1.094-1.682h-2.355
				c0.832-1.166,1.588-2.362,2.272-3.584c0.683-1.223,1.316-2.474,1.9-3.753h-3.936c0.673-0.538,1.37-1.125,2.102-1.766
				c0.73-0.64,1.387-1.286,1.97-1.934c-0.361-0.472-0.69-0.948-0.992-1.432c-0.306-0.482-0.613-0.97-0.927-1.464h-2.59
				c0.761-1.323,1.435-2.675,2.019-4.055c0.581-1.379,1.111-2.787,1.58-4.223h4.779c-0.045,0.247-0.125,0.538-0.236,0.875
				c-0.109,0.337-0.226,0.661-0.335,0.976h4.542c0.784,0,1.358,0.248,1.716,0.741c0.447,0.539,0.516,1.167,0.203,1.885
				c-0.316,0.762-0.729,1.576-1.247,2.439c-0.516,0.863-1.083,1.715-1.698,2.557c-0.617,0.841-1.269,1.648-1.952,2.423
				c-0.686,0.773-1.362,1.464-2.037,2.069h2.222c-0.11,0.292-0.232,0.612-0.37,0.96c-0.135,0.348-0.246,0.634-0.336,0.857h3.805
				c0.448,0,0.827,0.083,1.142,0.252s0.55,0.399,0.708,0.69C97.854,17.544,97.878,18.273,97.563,19.08z M89.621,4.914
				c-0.156,0.359-0.334,0.74-0.536,1.145c-0.204,0.404-0.382,0.74-0.541,1.009h1.011c0.112,0.157,0.224,0.326,0.337,0.504
				c0.112,0.18,0.248,0.359,0.403,0.538c0.382-0.515,0.742-1.036,1.077-1.563c0.334-0.528,0.661-1.071,0.977-1.632H89.621z
				 M90.396,18.844c-0.247,0.382-0.5,0.802-0.757,1.262c-0.259,0.46-0.479,0.824-0.656,1.093h1.143
				c0.136,0.27,0.35,0.605,0.642,1.009c0.402-0.561,0.774-1.116,1.109-1.666c0.338-0.548,0.663-1.115,0.977-1.699H90.396z
				 M112.571,28.351c-0.134,0.303-0.326,0.578-0.57,0.825c-0.271,0.269-0.599,0.47-0.977,0.606c-0.38,0.133-0.775,0.201-1.179,0.201
				h-7.098l-0.942-3.094h5.752c0.18,0,0.326-0.057,0.438-0.169c0.11-0.113,0.169-0.257,0.169-0.438V7.976
				c0-0.426-0.214-0.64-0.642-0.64h-5.215c-0.182,0.517-0.387,1.027-0.622,1.531s-0.453,0.948-0.656,1.331h3.7
				c0.719,0,1.301,0.257,1.75,0.773c0.359,0.404,0.539,0.887,0.539,1.447v9.759c0,0.583-0.225,1.077-0.673,1.48
				c-0.426,0.359-0.897,0.539-1.414,0.539h-4.273c-0.741,0-1.335-0.259-1.783-0.774c-0.358-0.472-0.539-0.987-0.539-1.548v-9.221
				c0-0.268,0.086-0.548,0.254-0.841c0.167-0.292,0.376-0.482,0.622-0.572h-3.836c1.009-1.682,1.872-3.5,2.59-5.451
				c0.719-1.953,1.224-3.802,1.517-5.553h4.878c-0.158,0.651-0.319,1.324-0.488,2.02c-0.168,0.695-0.366,1.369-0.589,2.019h6.897
				c0.382,0,0.741,0.083,1.075,0.252c0.338,0.168,0.632,0.388,0.876,0.657c0.427,0.492,0.64,1.054,0.64,1.682v20.427
				C112.772,27.694,112.706,28.048,112.571,28.351z M103.32,13.662c0-0.068-0.054-0.163-0.154-0.285
				c-0.102-0.124-0.194-0.186-0.287-0.186h-0.368c-0.091,0-0.191,0.045-0.303,0.133c-0.111,0.091-0.169,0.18-0.169,0.27v7.101
				c0,0.113,0.033,0.213,0.1,0.303c0.069,0.091,0.137,0.135,0.203,0.135h0.605c0.092,0,0.174-0.051,0.252-0.152
				c0.079-0.1,0.121-0.207,0.121-0.319V13.662z"/>
			<path d="M142.053,13.797c-0.27-0.314-0.544-0.685-0.821-1.11c-0.283-0.427-0.513-0.774-0.693-1.044l-1.043,2.154h-18.508
				c-0.492,0-0.901-0.118-1.227-0.354c-0.326-0.235-0.567-0.532-0.726-0.891c-0.155-0.336-0.221-0.683-0.184-1.043
				c0.035-0.358,0.174-0.685,0.421-0.977L128.189,0h6.429l-9.021,10.735h14.37c-0.605-0.943-1.184-1.901-1.733-2.877
				c-0.55-0.977-1.063-1.946-1.532-2.911h5.756c0.649,1.324,1.451,2.776,2.405,4.358c0.954,1.582,2.004,3.08,3.146,4.492H142.053z
				 M145.521,28.772c-0.562,0.627-1.289,0.941-2.188,0.941h-20.159c-0.582,0-1.08-0.101-1.495-0.302
				c-0.416-0.201-0.757-0.483-1.027-0.842c-0.491-0.628-0.739-1.423-0.739-2.389v-6.562c0-0.742,0.271-1.402,0.806-1.985
				c0.315-0.337,0.687-0.606,1.109-0.809c0.43-0.201,0.877-0.302,1.347-0.302h19.753c0.449,0,0.869,0.085,1.262,0.253
				c0.396,0.168,0.749,0.386,1.061,0.656c0.316,0.292,0.564,0.622,0.743,0.993s0.267,0.768,0.267,1.195v7.133
				C146.259,27.56,146.013,28.233,145.521,28.772z M141.145,20.426c0-0.135-0.083-0.279-0.25-0.438
				c-0.169-0.156-0.334-0.234-0.489-0.234h-14.638c-0.179,0-0.342,0.067-0.489,0.203c-0.146,0.134-0.219,0.291-0.219,0.47v5.485
				c0,0.18,0.085,0.336,0.253,0.471c0.167,0.133,0.318,0.201,0.455,0.201h14.638c0.155,0,0.32-0.068,0.489-0.201
				c0.167-0.135,0.25-0.28,0.25-0.437V20.426z"/>
			<path d="M162.896,25.693c-0.772,1.29-1.654,2.518-2.642,3.686h-6.091c1.01-1.101,1.94-2.301,2.795-3.602
				c0.852-1.301,1.624-2.558,2.32-3.769h5.755C164.381,23.174,163.671,24.402,162.896,25.693z M171.931,5.888v2.12h7.472
				c0.896,0,1.615,0.305,2.153,0.91c0.606,0.673,0.907,1.502,0.907,2.49v6.496c0,0.382-0.071,0.729-0.217,1.042
				c-0.147,0.315-0.332,0.595-0.555,0.841c-0.315,0.314-0.669,0.566-1.06,0.757c-0.397,0.191-0.794,0.287-1.196,0.287h-7.505v9.152
				h-5.014V20.83h-7.706c-0.851,0-1.548-0.326-2.085-0.976c-0.272-0.314-0.474-0.667-0.606-1.06
				c-0.136-0.393-0.201-0.813-0.201-1.263v-6.797c0-0.404,0.09-0.769,0.27-1.094s0.401-0.61,0.672-0.858
				c0.562-0.516,1.213-0.775,1.951-0.775h7.706v-2.12h-12.415V2.793h12.415V0.302h5.014v2.491h12.216v3.095H171.931z M166.917,10.97
				h-5.046c-0.382,0-0.574,0.18-0.574,0.539v1.515h5.62V10.97z M166.917,15.782h-5.62v1.346c0,0.248,0.063,0.444,0.187,0.589
				c0.121,0.146,0.318,0.219,0.587,0.219h4.847V15.782z M177.518,11.475c0-0.112-0.047-0.224-0.134-0.336
				c-0.09-0.113-0.192-0.168-0.304-0.168h-5.149v2.053h5.587V11.475z M177.518,15.782h-5.587v2.154h5.014
				c0.382,0,0.573-0.213,0.573-0.64V15.782z M178.393,29.378c-0.271-0.406-0.594-0.894-0.976-1.465
				c-0.38-0.573-0.774-1.195-1.179-1.869c-0.404-0.672-0.808-1.356-1.211-2.051c-0.406-0.696-0.774-1.357-1.112-1.986h5.824
				c0.649,1.233,1.372,2.496,2.17,3.785c0.795,1.291,1.587,2.485,2.372,3.586H178.393z"/>
		</g>
	</g>
</g>
</svg>
