<?xml version="1.0" encoding="utf-8"?>
<!-- Generator: Adobe Illustrator 21.1.0, SVG Export Plug-In . SVG Version: 6.00 Build 0)  -->
<svg version="1.1" id="圖層_1" xmlns="http://www.w3.org/2000/svg" xmlns:xlink="http://www.w3.org/1999/xlink" x="0px" y="0px"
	 viewBox="0 0 170 50" style="enable-background:new 0 0 170 50;" xml:space="preserve">
<g>
	<path d="M53.6,37.3c-3.2-3.2-4.8-7.2-4.8-12c0-4.8,1.6-8.8,4.8-12c3.2-3.2,7.2-4.8,12-4.8c4.8,0,8.8,1.6,12,4.8
		c3.2,3.2,4.8,7.2,4.8,12c0,4.8-1.6,8.8-4.8,12c-3.2,3.2-7.2,4.8-12,4.8C60.9,42.2,56.9,40.6,53.6,37.3z M65.7,35.9c3,0,5.4-1,7.3-3
		c1.9-2,2.8-4.5,2.8-7.5c0-3-0.9-5.5-2.8-7.5c-1.9-2-4.3-3-7.3-3c-3,0-5.4,1-7.3,3c-1.9,2-2.8,4.5-2.8,7.5c0,3,0.9,5.5,2.8,7.5
		C60.2,34.9,62.7,35.9,65.7,35.9z"/>
	<path d="M43.4,21.9H28l0,6.3h8.7c-0.4,1.7-1.2,3.3-2.5,4.6c-1.9,2-4.3,3-7.3,3c-3,0-5.5-1-7.3-3c-1.9-2-2.8-4.5-2.8-7.5
		s0.9-5.5,2.8-7.5c1.9-2,4.3-3,7.3-3c2.7,0,4.9,0.8,6.7,2.4l5.8-3.4c-0.2-0.2-0.3-0.3-0.5-0.5c-3.2-3.2-7.2-4.8-12-4.8
		c-4.8,0-8.8,1.6-12,4.8c-3.2,3.2-4.8,7.2-4.8,12c0,4.8,1.6,8.8,4.8,12c3.2,3.2,7.2,4.9,12,4.9c4.8,0,8.8-1.6,12-4.8
		c3.2-3.2,4.8-7.2,4.8-12C43.7,24.1,43.6,23,43.4,21.9z"/>
	<g>
		<path d="M131,37.3c-3.2-3.2-4.8-7.2-4.8-12c0-4.8,1.6-8.8,4.8-12c3.2-3.2,7.2-4.8,12-4.8c4.8,0,8.8,1.6,12,4.8
			c3.2,3.2,4.8,7.2,4.8,12c0,4.8-1.6,8.8-4.8,12c-3.2,3.2-7.2,4.8-12,4.8C138.3,42.2,134.3,40.6,131,37.3z M143.1,35.9
			c3,0,5.4-1,7.3-3c1.9-2,2.8-4.5,2.8-7.5c0-3-0.9-5.5-2.8-7.5c-1.9-2-4.3-3-7.3-3c-3,0-5.4,1-7.3,3c-1.9,2-2.8,4.5-2.8,7.5
			s0.9,5.5,2.8,7.5C137.6,34.9,140.1,35.9,143.1,35.9z"/>
		<path d="M120.8,21.9h-15.5v6.3h8.7c-0.4,1.7-1.2,3.3-2.5,4.6c-1.9,2-4.3,3-7.3,3c-3,0-5.5-1-7.3-3c-1.9-2-2.8-4.5-2.8-7.5
			c0-3,0.9-5.5,2.8-7.5c1.9-2,4.3-3,7.3-3c2.7,0,4.9,0.8,6.7,2.4l5.8-3.4c-0.2-0.2-0.3-0.3-0.5-0.5c-3.2-3.2-7.2-4.8-12-4.8
			c-4.8,0-8.8,1.6-12,4.8c-3.2,3.2-4.8,7.2-4.8,12c0,4.8,1.6,8.8,4.8,12c3.2,3.2,7.2,4.9,12,4.9c4.8,0,8.8-1.6,12-4.8
			c3.2-3.2,4.8-7.2,4.8-12C121.1,24.1,121,23,120.8,21.9z"/>
	</g>
</g>
</svg>
